<?xml version="1.0" encoding="utf-8"?>
<!-- Generator: Adobe Illustrator 26.4.1, SVG Export Plug-In . SVG Version: 6.00 Build 0)  -->
<svg version="1.1" id="Layer_1" xmlns="http://www.w3.org/2000/svg" xmlns:xlink="http://www.w3.org/1999/xlink" x="0px" y="0px"
	 viewBox="0 0 1872.8 263.7" style="enable-background:new 0 0 1872.8 263.7;" xml:space="preserve">
<style type="text/css">
	.st0{fill:#FFFFFF;}
	.st1{enable-background:new    ;}
</style>
<g>
	<path class="st0" d="M273,131.8c0,35.9,0,71.9,0.1,107.8c0,3.3-1.1,4.8-4,6c-18.2,7.7-37,12.9-56.5,15.6
		c-8.2,1.1-16.3,2.1-24.6,2.1c-8,0-15.9,0.3-23.9-0.2c-26.9-1.6-52.7-7.4-77.4-18.3c-17-7.5-32.7-17.2-46.5-29.7
		c-15.7-14.2-27.8-30.8-34.8-51c-4.6-13.2-6.2-26.8-5.1-40.6c1.6-19,8.4-36.2,19.3-51.8c12.6-18,28.9-31.8,47.6-42.9
		C86.9,17.4,108,9.8,130.3,5.1c11.6-2.4,23.3-3.8,35.2-4.5c11.4-0.6,22.8-0.3,34.2,0.6c24.3,2.1,47.6,7.7,70,17.4
		c2.6,1.1,3.4,2.5,3.4,5.3C272.9,59.9,273,95.8,273,131.8z"/>
	<path class="st0" d="M381.2,133c41.7,32.8,82.9,65.4,124.5,98.2c-1.3,0.9-2.2,1.6-3.1,2.2c-12.3,7.5-25.4,13.5-39,18.1
		c-14.6,5-29.6,8.3-44.8,10.2c-11.1,1.4-22.1,2.1-33.3,1.9c-31.1-0.6-61-6.5-89.5-19.2c-1.9-0.9-2.9-2-2.7-4.1c0.1-0.7,0-1.4,0-2.2
		c0-70.8,0-141.7,0-212.5c0-5.1,0-5.2,4.6-7.2c15.7-6.9,32.1-11.7,49-14.7c16.6-3,33.4-4.2,50.2-3.6c33.8,1.5,66.1,9,96.2,25
		c4.4,2.3,8.6,5,12.9,7.5c0.6,0.4,1.1,0.9,2,1.6C497.6,42.8,487,50.8,476.5,59c-10.6,8.2-21.1,16.4-31.7,24.6
		c-10.5,8.2-21,16.3-31.5,24.5C402.7,116.3,392.1,124.6,381.2,133z"/>
</g>
<g class="st1">
	<path class="st0" d="M587.7,124.1c0,4.8-0.6,9-1.8,12.7c-1.2,3.7-2.8,7-4.8,9.9c-2,2.9-4.3,5.3-6.9,7.3c-2.6,2-5.4,3.7-8.2,5
		c-2.9,1.3-5.7,2.2-8.6,2.8c-2.9,0.6-5.6,0.9-8.2,0.9h-47.1v-20.8h47.1c2.7-0.2,5.1-0.8,7.2-1.6s4-2.1,5.6-3.6
		c1.5-1.5,2.7-3.3,3.6-5.4c0.9-2.1,1.3-4.5,1.3-7.2v-9.4c-0.3-2.6-0.8-5-1.7-7.2c-0.9-2.2-2-4.1-3.5-5.6c-1.5-1.5-3.2-2.8-5.3-3.6
		s-4.5-1.3-7.2-1.3h-46.9c-2.8,0-4.9,0.7-6.3,2.2s-2.2,3.5-2.2,6.2v85.6h-20.8v-85.6c0-5.3,1-9.9,2.9-13.6c1.9-3.7,4.4-6.8,7.3-9
		c2.9-2.3,6.1-4,9.5-5c3.4-1,6.6-1.6,9.4-1.6h47.1c4.7,0,8.9,0.6,12.7,1.8c3.7,1.2,7,2.8,9.9,4.8c2.9,2,5.3,4.3,7.3,6.9
		c2,2.6,3.7,5.4,5,8.2c1.3,2.9,2.3,5.7,2.8,8.6c0.6,2.9,0.9,5.6,0.9,8.2V124.1z"/>
	<path class="st0" d="M699.1,190.9h-20.8v-48c0-2.7-0.5-5.2-1.4-7.3c-0.9-2.2-2.2-4-3.8-5.6c-1.6-1.5-3.5-2.7-5.6-3.6
		c-2.2-0.8-4.5-1.2-7-1.2h-36.4v65.7h-20.8v-76.2c0-1.4,0.3-2.8,0.8-4c0.5-1.3,1.3-2.3,2.2-3.3c1-0.9,2.1-1.7,3.4-2.2
		c1.3-0.5,2.6-0.8,4.1-0.8h46.9c2.6,0,5.4,0.3,8.3,0.9c2.9,0.6,5.8,1.5,8.6,2.8c2.9,1.3,5.6,3,8.2,5c2.6,2,4.9,4.4,6.9,7.3
		c2,2.9,3.6,6.2,4.8,9.9c1.2,3.7,1.8,8,1.8,12.7V190.9z"/>
	<path class="st0" d="M810.4,133c0,2.9-0.5,6-1.5,9.3c-1,3.3-2.7,6.4-4.9,9.3c-2.3,2.9-5.2,5.2-8.9,7.2c-3.7,1.9-8.1,2.9-13.3,2.9
		h-37.6v-19.8h37.6c2.8,0,5-0.9,6.6-2.6c1.5-1.7,2.3-3.9,2.3-6.4c0-2.7-0.9-4.9-2.6-6.4c-1.7-1.5-3.8-2.3-6.3-2.3h-37.6
		c-2.8,0-5,0.9-6.6,2.6c-1.5,1.7-2.3,3.9-2.3,6.4v29.1c0,2.8,0.9,4.9,2.6,6.5c1.7,1.5,3.9,2.3,6.4,2.3h37.4v19.9h-37.6
		c-2.9,0-6-0.5-9.3-1.5c-3.3-1-6.4-2.7-9.3-4.9c-2.9-2.3-5.2-5.2-7.2-8.9c-1.9-3.7-2.9-8.1-2.9-13.3V133c0-2.9,0.5-6,1.5-9.3
		c1-3.3,2.7-6.4,4.9-9.3c2.3-2.9,5.2-5.2,8.9-7.2c3.7-1.9,8.1-2.9,13.3-2.9h37.6c2.9,0,6,0.5,9.3,1.5c3.3,1,6.4,2.7,9.3,4.9
		c2.9,2.3,5.2,5.2,7.2,8.9C809.5,123.4,810.4,127.8,810.4,133z"/>
	<path class="st0" d="M919.1,180.4c0,1.5-0.3,2.9-0.8,4.2c-0.5,1.3-1.3,2.4-2.2,3.3c-0.9,0.9-2,1.7-3.3,2.2c-1.3,0.5-2.6,0.8-4,0.8
		h-47.1c-2.6,0-5.3-0.3-8.2-0.9c-2.9-0.6-5.8-1.5-8.6-2.8c-2.8-1.3-5.6-3-8.2-5s-5-4.4-6.9-7.3c-2-2.9-3.6-6.2-4.8-9.9
		c-1.2-3.7-1.8-8-1.8-12.7v-48H844v48c0,2.7,0.5,5.2,1.4,7.3c0.9,2.2,2.2,4,3.8,5.6c1.6,1.5,3.5,2.7,5.6,3.6c2.2,0.8,4.5,1.2,7,1.2
		h36.4v-65.7h20.8V180.4z"/>
	<path class="st0" d="M1015.9,190.9h-20.8v-57.4c0-2.7-0.7-4.8-2.2-6.2c-1.4-1.4-3.6-2.1-6.4-2.1h-27.1v65.7h-20.8v-76.2
		c0-1.4,0.3-2.8,0.8-4c0.5-1.3,1.3-2.3,2.2-3.3c1-0.9,2.1-1.7,3.4-2.2c1.3-0.5,2.6-0.8,4.1-0.8h37.6c2.9,0,6,0.5,9.3,1.5
		c3.3,1,6.5,2.6,9.4,4.9v-6.4h28.2c2,0,4.1,0.2,6.2,0.7c2.2,0.5,4.4,1.2,6.5,2.1s4.2,2.2,6.2,3.7c2,1.5,3.7,3.4,5.2,5.5
		c1.5,2.2,2.7,4.7,3.6,7.5c0.9,2.8,1.4,6,1.4,9.6v57.4H1042v-57.4c0-2.7-0.7-4.8-2-6.2c-1.4-1.4-3.5-2.1-6.3-2.1h-18.7
		c0.7,2.6,1,5.3,1,8.3V190.9z"/>
	<path class="st0" d="M1176.1,161.7c0,3.6-0.5,6.8-1.4,9.6c-0.9,2.9-2.1,5.4-3.6,7.5c-1.5,2.2-3.2,4-5.2,5.5c-2,1.5-4,2.8-6.2,3.7
		s-4.4,1.7-6.6,2.1c-2.2,0.5-4.3,0.7-6.3,0.7h-37.6c-2.9,0-6-0.5-9.4-1.5c-3.4-1-6.6-2.7-9.5-5c-2.9-2.3-5.3-5.3-7.3-9
		c-1.9-3.7-2.9-8.3-2.9-13.7v-28.2c0-5.3,1-9.9,2.9-13.6c1.9-3.7,4.4-6.7,7.3-9c2.9-2.3,6.1-4,9.5-5c3.4-1,6.6-1.5,9.4-1.5h37.6
		c5.3,0,9.9,1,13.6,2.9c3.7,1.9,6.8,4.3,9,7.2c2.3,2.9,4,6.1,5,9.5c1,3.4,1.6,6.6,1.6,9.5V161.7z M1155.3,133.7c0-2.9-0.7-5-2.2-6.4
		c-1.4-1.4-3.5-2.1-6.2-2.1h-37.4c-2.8,0-4.9,0.7-6.3,2.1c-1.4,1.4-2.2,3.5-2.2,6.2v28.2c0,2.7,0.7,4.8,2.2,6.2s3.5,2.2,6.3,2.2
		h37.4c2.8,0,4.9-0.7,6.3-2.2c1.4-1.4,2.1-3.5,2.1-6.2V133.7z"/>
	<path class="st0" d="M1310.7,165.7c0,2.6-0.4,5.3-1.3,8.2c-0.9,2.9-2.3,5.7-4.3,8.2c-2,2.5-4.6,4.6-7.8,6.3s-7.1,2.5-11.8,2.5h-79
		c-1.5,0-2.9-0.3-4.2-0.8c-1.3-0.5-2.4-1.3-3.3-2.2c-0.9-0.9-1.7-2-2.2-3.3c-0.5-1.3-0.8-2.7-0.8-4.2V86.6c0-1.4,0.3-2.8,0.8-4.1
		c0.5-1.3,1.3-2.4,2.2-3.4c0.9-1,2-1.7,3.3-2.2c1.3-0.5,2.7-0.8,4.2-0.8h69.7c2.6,0,5.3,0.5,8.2,1.4c2.9,0.9,5.7,2.4,8.2,4.4
		c2.5,2,4.6,4.6,6.3,7.8s2.5,7.1,2.5,11.8v3.9c0,3.7-0.6,7.6-1.8,11.9c-1.2,4.2-3.2,8.3-5.9,12.1c2.3,1.4,4.6,3.2,6.6,5.2
		c2.1,2,3.9,4.4,5.4,7c1.5,2.7,2.8,5.7,3.7,9c0.9,3.4,1.4,7.1,1.4,11.1V165.7z M1289.9,161.7c0-2.7-0.4-5.2-1.3-7.3
		c-0.9-2.2-2.1-4-3.6-5.6c-1.5-1.5-3.4-2.7-5.6-3.6c-2.2-0.8-4.6-1.2-7.4-1.2h-46.9v-21h37.6c2.7,0,5.2-0.4,7.4-1.2
		c2.2-0.8,4.1-2,5.6-3.6c1.5-1.5,2.7-3.4,3.6-5.6c0.8-2.2,1.2-4.6,1.2-7.3v-3.9c0-3-1.4-4.5-4.3-4.5h-59.3v73.2h68.7
		c0.4,0,0.8,0,1.4-0.1c0.5-0.1,1-0.2,1.4-0.5c0.4-0.3,0.8-0.7,1.1-1.4s0.5-1.5,0.5-2.6V161.7z"/>
	<path class="st0" d="M1402.2,125.2h-46.8c-2.8,0-5,0.7-6.4,2.1c-1.4,1.4-2.2,3.5-2.2,6.2v57.4H1326v-57.4c0-3.6,0.5-6.8,1.4-9.6
		c0.9-2.8,2.1-5.3,3.6-7.5s3.3-4,5.2-5.5c2-1.5,4-2.8,6.2-3.7s4.4-1.7,6.6-2.1c2.2-0.5,4.3-0.7,6.2-0.7h47V125.2z"/>
	<path class="st0" d="M1509.8,161.7c0,3.6-0.5,6.8-1.4,9.6c-0.9,2.9-2.1,5.4-3.6,7.5c-1.5,2.2-3.2,4-5.2,5.5c-2,1.5-4,2.8-6.2,3.7
		s-4.4,1.7-6.6,2.1c-2.2,0.5-4.3,0.7-6.3,0.7H1443c-2.9,0-6-0.5-9.4-1.5c-3.4-1-6.6-2.7-9.5-5c-2.9-2.3-5.3-5.3-7.3-9
		c-1.9-3.7-2.9-8.3-2.9-13.7v-28.2c0-5.3,1-9.9,2.9-13.6c1.9-3.7,4.4-6.7,7.3-9c2.9-2.3,6.1-4,9.5-5c3.4-1,6.6-1.5,9.4-1.5h37.6
		c5.3,0,9.9,1,13.6,2.9c3.7,1.9,6.8,4.3,9,7.2c2.3,2.9,4,6.1,5,9.5c1,3.4,1.6,6.6,1.6,9.5V161.7z M1488.9,133.7c0-2.9-0.7-5-2.2-6.4
		c-1.4-1.4-3.5-2.1-6.2-2.1h-37.4c-2.8,0-4.9,0.7-6.3,2.1c-1.4,1.4-2.2,3.5-2.2,6.2v28.2c0,2.7,0.7,4.8,2.2,6.2s3.5,2.2,6.3,2.2
		h37.4c2.8,0,4.9-0.7,6.3-2.2c1.4-1.4,2.1-3.5,2.1-6.2V133.7z"/>
	<path class="st0" d="M1670,104.4c-3.3,7.4-6.9,14.7-10.7,21.9c-3.8,7.2-7.9,14-12.1,20.4c-4.2,6.4-8.5,12.3-12.9,17.7
		c-4.4,5.4-8.7,10.1-13,14c-4.3,3.9-8.5,7-12.6,9.2c-4.1,2.2-7.9,3.3-11.6,3.3c-1.5,0-2.9-0.3-4.2-0.8c-1.3-0.5-2.4-1.3-3.4-2.2
		c-1-0.9-1.7-2-2.2-3.3c-0.5-1.3-0.8-2.7-0.8-4.2v-38.8l-41.3,46.2c-1.1,1.1-2.2,1.9-3.5,2.4c-1.3,0.5-2.5,0.8-3.9,0.8
		c-1.4,0-2.8-0.3-4-0.8c-1.3-0.5-2.4-1.3-3.3-2.2c-1-0.9-1.7-2-2.3-3.3s-0.8-2.7-0.8-4.2v-76.1h20.8v49.3l41.5-46.4
		c1.5-1.5,3.3-2.4,5.3-2.8c2.1-0.4,4.1-0.2,6,0.7c2,0.8,3.5,2.1,4.7,3.8c1.1,1.7,1.7,3.6,1.7,5.7v49.5c4.5-4.3,8.5-8.9,12.2-13.7
		c3.6-4.8,7-9.8,10.1-14.9c3.1-5.1,6.1-10.3,8.8-15.5c2.7-5.3,5.4-10.5,8-15.7H1670z"/>
	<path class="st0" d="M1760.9,161.7c0,3.6-0.5,6.8-1.4,9.6c-0.9,2.9-2.1,5.4-3.6,7.5c-1.5,2.2-3.2,4-5.2,5.5c-2,1.5-4,2.8-6.2,3.7
		s-4.4,1.7-6.6,2.1c-2.2,0.5-4.3,0.7-6.3,0.7h-56.4v-20.8h56.2c2.8,0,5-0.7,6.4-2.2s2.2-3.5,2.2-6.2c-0.3-5.6-3.1-8.3-8.4-8.3h-32.3
		c-4.6,0-8.5-0.8-11.7-2.4s-5.8-3.6-7.8-6s-3.4-5-4.3-7.8c-0.9-2.8-1.3-5.4-1.3-7.8c0-4.6,0.8-8.6,2.5-11.7c1.7-3.2,3.7-5.8,6.2-7.7
		c2.5-2,5.2-3.4,8.2-4.3c2.9-0.9,5.7-1.3,8.2-1.3h51.2v20.8h-51c-1.1,0-1.9,0.1-2.5,0.4c-0.6,0.2-1.1,0.6-1.4,1
		c-0.3,0.4-0.5,0.8-0.5,1.3c-0.1,0.5-0.1,0.9-0.1,1.3c0.1,0.9,0.2,1.5,0.5,2c0.3,0.5,0.6,0.8,1,1c0.4,0.2,0.9,0.3,1.4,0.4
		c0.5,0,1,0,1.5,0h32.3c5.3,0,9.9,1,13.6,2.9c3.7,1.9,6.8,4.3,9,7.2c2.3,2.9,4,6.1,5,9.5C1760.4,155.6,1760.9,158.8,1760.9,161.7z"
		/>
	<path class="st0" d="M1868.6,133c0,2.9-0.5,6-1.5,9.3c-1,3.3-2.7,6.4-4.9,9.3c-2.3,2.9-5.2,5.2-8.9,7.2c-3.7,1.9-8.1,2.9-13.3,2.9
		h-37.6v-19.8h37.6c2.8,0,5-0.9,6.6-2.6c1.5-1.7,2.3-3.9,2.3-6.4c0-2.7-0.9-4.9-2.6-6.4c-1.7-1.5-3.8-2.3-6.3-2.3h-37.6
		c-2.8,0-5,0.9-6.6,2.6c-1.5,1.7-2.3,3.9-2.3,6.4v29.1c0,2.8,0.9,4.9,2.6,6.5c1.7,1.5,3.9,2.3,6.4,2.3h37.4v19.9h-37.6
		c-2.9,0-6-0.5-9.3-1.5c-3.3-1-6.4-2.7-9.3-4.9c-2.9-2.3-5.2-5.2-7.2-8.9c-1.9-3.7-2.9-8.1-2.9-13.3V133c0-2.9,0.5-6,1.5-9.3
		c1-3.3,2.7-6.4,4.9-9.3c2.3-2.9,5.2-5.2,8.9-7.2c3.7-1.9,8.1-2.9,13.3-2.9h37.6c2.9,0,6,0.5,9.3,1.5c3.3,1,6.4,2.7,9.3,4.9
		c2.9,2.3,5.2,5.2,7.2,8.9C1867.6,123.4,1868.6,127.8,1868.6,133z"/>
</g>
</svg>
