<?xml version="1.0" encoding="utf-8"?>
<!-- Generator: Adobe Illustrator 26.4.1, SVG Export Plug-In . SVG Version: 6.00 Build 0)  -->
<svg version="1.1" id="Layer_1" xmlns="http://www.w3.org/2000/svg" xmlns:xlink="http://www.w3.org/1999/xlink" x="0px" y="0px"
	 viewBox="0 0 1786.1 263.6" style="enable-background:new 0 0 1786.1 263.6;" xml:space="preserve">
<style type="text/css">
	.st0{fill:#FFFFFF;}
	.st1{font-family:'ArialMT';}
	.st2{font-size:177.6131px;}
</style>
<g>
	<path class="st0" d="M273.1,131.7c0,35.9,0,71.9,0.1,107.8c0,3.3-1.1,4.8-4,6c-18.2,7.7-37,12.9-56.5,15.6
		c-8.2,1.1-16.3,2.1-24.6,2.1c-8,0-15.9,0.3-23.9-0.2c-26.9-1.6-52.7-7.4-77.4-18.3c-17-7.5-32.7-17.2-46.5-29.7
		c-15.7-14.2-27.8-30.8-34.8-51c-4.6-13.2-6.2-26.8-5.1-40.6c1.6-19,8.4-36.2,19.3-51.8c12.6-18,28.9-31.8,47.6-42.9
		C87,17.2,108.1,9.6,130.4,4.9c11.6-2.4,23.3-3.8,35.2-4.5C177-0.2,188.4,0.1,199.8,1c24.3,2.1,47.6,7.7,70,17.4
		c2.6,1.1,3.4,2.5,3.4,5.3C273,59.7,273.1,95.7,273.1,131.7z"/>
	<path class="st0" d="M376.3,132.9c41.7,32.8,82.9,65.4,124.5,98.2c-1.3,0.9-2.2,1.6-3.1,2.2c-12.3,7.5-25.4,13.5-39,18.1
		c-14.6,5-29.6,8.3-44.8,10.2c-11.1,1.4-22.1,2.1-33.3,1.9c-31.1-0.6-61-6.5-89.5-19.2c-1.9-0.9-2.9-2-2.7-4.1c0.1-0.7,0-1.4,0-2.2
		c0-70.8,0-141.7,0-212.5c0-5.1,0-5.2,4.6-7.2c15.7-6.9,32.1-11.7,49-14.7c16.6-3,33.4-4.2,50.2-3.6C426,1.5,458.3,9,488.4,25
		c4.4,2.3,8.6,5,12.9,7.5c0.6,0.4,1.1,0.9,2,1.6c-10.6,8.5-21.2,16.6-31.7,24.8c-10.6,8.2-21.1,16.4-31.7,24.6
		c-10.5,8.2-21,16.3-31.5,24.5C397.8,116.2,387.2,124.4,376.3,132.9z"/>
</g>
<text transform="matrix(1 0 0 1 532.3292 190.264)" class="st0 st1 st2">PneumoBrowse</text>
</svg>
